<svg width="24" height="24" viewBox="0 0 24 24" fill="none" xmlns="http://www.w3.org/2000/svg">
<path d="M22 5.5C22 3.5 20.5 2 18.5 2H5.5C3.5 2 2 3.5 2 5.5V9.6C2 12.9 4.7 15.5 7.9 15.5H16.1C16.9 15.5 17.7 15.3 18.4 15V18.5C18.4 19.3 17.7 20 16.9 20H7.1C6.3 20 5.6 19.3 5.6 18.5V16.9C5.6 16.3 5.2 15.9 4.6 15.9C4 15.9 3.6 16.3 3.6 16.9V18.5C3.6 20.4 5.1 22 7.1 22H16.9C18.8 22 20.4 20.5 20.4 18.5V13.6C21.4 12.5 22 11.1 22 9.5V5.5ZM7.9 13.5C5.8 13.5 4 11.7 4 9.5V5.5C4 4.7 4.7 4 5.5 4H18.6C19.3 4 20 4.7 20 5.5V9.6C20 11.8 18.2 13.5 16.1 13.5H7.9Z" fill="#34dcff"/>
<path d="M14.5 10.2002H9.5C8.9 10.2002 8.5 10.6002 8.5 11.2002C8.5 11.8002 8.9 12.2002 9.5 12.2002H14.4C15 12.2002 15.4 11.8002 15.4 11.2002C15.4 10.6002 15 10.2002 14.5 10.2002Z" fill="black"/>
</svg>
