<?xml version="1.0" encoding="UTF-8"?><svg xmlns="http://www.w3.org/2000/svg" viewBox="0 0 20 20"><defs><style>.d{fill:#0a1028;}.e{opacity:.5;}</style></defs><g id="a"/><g id="b"><g id="c"><g class="e"><path class="d" d="M10,0C4.5,0,0,4.5,0,10s4.5,10,10,10,10-4.5,10-10S15.5,0,10,0Zm4,12.6c.4,.4,.4,1,0,1.4-.2,.2-.4,.3-.7,.3s-.5-.1-.7-.3l-2.6-2.6-2.6,2.6c-.2,.2-.5,.3-.7,.3-.3,0-.5-.1-.7-.3-.4-.4-.4-1,0-1.4l2.6-2.6-2.6-2.6c-.4-.4-.4-1,0-1.4,.4-.4,1-.4,1.4,0l2.6,2.6,2.6-2.6c.4-.4,1-.4,1.4,0,.4,.4,.4,1,0,1.4l-2.6,2.6,2.6,2.6Z"/></g></g></g></svg>