<?xml version="1.0" encoding="UTF-8"?><svg id="Layer_2" xmlns="http://www.w3.org/2000/svg" xmlns:xlink="http://www.w3.org/1999/xlink" viewBox="0 0 30 33"><defs><style>.cls-1{fill:url(#linear-gradient);}</style><linearGradient id="linear-gradient" x1="10.42" y1="3.66" x2="25.21" y2="29.27" gradientTransform="matrix(1, 0, 0, 1, 0, 0)" gradientUnits="userSpaceOnUse"><stop offset="0" stop-color="#13ec96"/><stop offset="1" stop-color="#13ec96" stop-opacity=".4"/></linearGradient></defs><g id="Layer_1-2"><path class="cls-1" d="M29.45,.3c-.59-.44-1.48-.44-2.07,.3l-4.29,5.33c-2.37-1.63-5.18-2.52-8.29-2.52C6.66,3.41,0,10.07,0,18.2s6.66,14.8,14.8,14.8,14.8-6.66,14.8-14.8c0-2.96-.89-5.62-2.37-7.99l-1.04,1.18-1.04,1.18-8.58,10.8c-.3,.3-.74,.59-1.18,.59s-.74-.15-1.04-.44l-6.36-6.81c-.44-.44-.44-1.18-.3-1.63,0-.15,.15-.3,.3-.44,.59-.59,1.48-.59,2.07,0l5.18,5.62,8.14-10.21,.89-1.18,.89-1.18,4.29-5.33c.74-.59,.74-1.48,0-2.07Z"/></g></svg>