<?xml version="1.0" encoding="UTF-8"?><svg id="Layer_2" xmlns="http://www.w3.org/2000/svg" viewBox="0 0 30 30"><defs><style>.cls-1{fill:#0a1028;}</style></defs><g id="Layer_1-2"><path class="cls-1" d="M19.95,30H5.25c-3,0-5.25-2.25-5.25-5.25V10.05c0-2.85,2.25-5.25,5.25-5.25h14.7c2.85,0,5.25,2.25,5.25,5.25v14.7c-.15,3-2.4,5.25-5.25,5.25ZM5.25,7.95c-1.2,0-2.25,.9-2.25,2.1v14.7c0,1.2,1.05,2.25,2.25,2.25h14.7c1.2,0,2.25-1.05,2.25-2.25V10.05c0-1.2-1.05-2.25-2.25-2.25H5.25v.15Z"/><path class="cls-1" d="M28.5,23.85c-.9,0-1.5-.6-1.5-1.5V6.45c0-1.95-1.5-3.45-3.45-3.45H7.65c-.9,0-1.5-.6-1.5-1.5s.6-1.5,1.5-1.5h15.9c3.6,0,6.45,2.85,6.45,6.45v15.9c0,.9-.6,1.5-1.5,1.5Z"/></g></svg>