<svg width="24" height="24" viewBox="0 0 24 24" fill="none" xmlns="http://www.w3.org/2000/svg">
<path d="M20.1176 18.1429H18C17.6471 16.8571 16.5 16 15.0882 16C13.4118 16 12 17.3714 12 19C12 20.6286 13.4118 22 15.0882 22C16.5 22 17.6471 21.1429 18 19.8571H20.1176C20.6471 19.8571 21 19.4286 21 19C21 18.4857 20.6471 18.1429 20.1176 18.1429ZM15.0882 20.2857C14.3824 20.2857 13.7647 19.6857 13.7647 19C13.7647 18.3143 14.3824 17.7143 15.0882 17.7143C15.7941 17.7143 16.4118 18.3143 16.4118 19C16.4118 19.6857 15.7941 20.2857 15.0882 20.2857Z" fill="#8699ad"/>
<path d="M10.1489 18H3.85106C3.34043 18 3 18.5 3 19C3 19.6 3.42553 20 3.85106 20H10.1489C10.6596 20 11 19.5 11 19C11 18.4 10.5745 18 10.1489 18Z" fill="#8699ad"/>
<path d="M3.85106 6H10.1489C10.6596 6 11 5.5 11 5C11 4.5 10.5745 4 10.1489 4H3.85106C3.34043 4 3 4.5 3 5C3 5.5 3.42553 6 3.85106 6Z" fill="#8699ad"/>
<path d="M15.0882 8C16.5 8 17.6471 7.14286 18 5.85714H20.1176C20.6471 5.85714 21 5.42857 21 5C21 4.57143 20.5588 4.14286 20.1176 4.14286H18C17.6471 2.85714 16.5 2 15.0882 2C13.4118 2 12 3.37143 12 5C12 6.62857 13.4118 8 15.0882 8ZM15.0882 3.71429C15.7941 3.71429 16.4118 4.31429 16.4118 5C16.4118 5.68571 15.7941 6.28571 15.0882 6.28571C14.3824 6.28571 13.7647 5.68571 13.7647 5C13.7647 4.31429 14.3824 3.71429 15.0882 3.71429Z" fill="#8699ad"/>
<path d="M3.88235 12.8571H6C6.35294 14.0571 7.5 15 8.91176 15C10.5882 15 12 13.6286 12 12C12 10.3714 10.5882 9 8.91176 9C7.5 9 6.35294 9.85714 6 11.1429H3.88235C3.35294 11.1429 3 11.5714 3 12C3 12.4286 3.44118 12.8571 3.88235 12.8571ZM8.91176 10.7143C9.61765 10.7143 10.2353 11.3143 10.2353 12C10.2353 12.6857 9.61765 13.2857 8.91176 13.2857C8.20588 13.2857 7.58824 12.6857 7.58824 12C7.58824 11.3143 8.20588 10.7143 8.91176 10.7143Z" fill="#8699ad"/>
<path d="M20.1398 11H13.8602C13.3441 11 13 11.5 13 12C13 12.5 13.4301 13 13.8602 13H20.1398C20.6559 13 21 12.5 21 12C21 11.5 20.6559 11 20.1398 11Z" fill="#8699ad"/>
</svg>
