<svg width="24" height="24" viewBox="0 0 24 24" fill="none" xmlns="http://www.w3.org/2000/svg">
<path fill-rule="evenodd" clip-rule="evenodd" d="M2.74764 6.4888C1.13541 4.87383 2.29295 2 4.62619 2H19.3738C21.7071 2 22.8646 4.8738 21.2524 6.48878C21.2515 6.48974 21.2505 6.49071 21.2495 6.49168L15.428 12.3914V17.5493C15.428 18.3778 15.0256 19.2566 14.2527 19.7359L11.397 21.6966L11.3852 21.7046C10.7492 22.1281 10.0171 22.0552 9.49095 21.7447C8.9756 21.4406 8.57205 20.8626 8.57205 20.1538V12.3914L2.74764 6.4888ZM4.0557 4.40276C3.94928 4.66089 3.9979 4.91084 4.16383 5.07657L4.16899 5.08172L10.2839 11.2787C10.4685 11.4658 10.5721 11.7181 10.5721 11.981V19.837L13.1426 18.0721C13.1595 18.0604 13.1769 18.0493 13.1946 18.0387C13.3013 17.9747 13.428 17.7878 13.428 17.5493V11.981C13.428 11.7181 13.5315 11.4658 13.7162 11.2787L19.8362 5.07655C20.0021 4.91083 20.0508 4.66089 19.9443 4.40276C19.8401 4.14984 19.632 4 19.3738 4H4.62619C4.36808 4 4.15998 4.14984 4.0557 4.40276Z" fill="black"/>
</svg>
