<svg width="24" height="24" viewBox="0 0 24 24" fill="none" xmlns="http://www.w3.org/2000/svg">
<path fill-rule="evenodd" clip-rule="evenodd" d="M5.5 4C4.65228 4 4 4.65228 4 5.5V18.5C4 19.3477 4.65228 20 5.5 20H7.1C7.82389 20 8.52036 19.3646 8.6 18.5569V5.5C8.6 4.65228 7.94772 4 7.1 4H5.5ZM2 5.5C2 3.54772 3.54772 2 5.5 2H7.1C9.05228 2 10.6 3.54772 10.6 5.5V18.6C10.6 18.6256 10.599 18.6512 10.5971 18.6767C10.4604 20.4531 8.96611 22 7.1 22H5.5C3.54772 22 2 20.4523 2 18.5V5.5Z" fill="black"/>
<path fill-rule="evenodd" clip-rule="evenodd" d="M16.8999 4C16.0522 4 15.3999 4.65228 15.3999 5.5V18.5C15.3999 19.3477 16.0522 20 16.8999 20H18.4999C19.3744 20 19.9999 19.3213 19.9999 18.6V5.5C19.9999 4.65228 19.3476 4 18.4999 4H16.8999ZM13.3999 5.5C13.3999 3.54772 14.9476 2 16.8999 2H18.4999C20.4522 2 21.9999 3.54772 21.9999 5.5V18.6C21.9999 20.4787 20.4254 22 18.4999 22H16.8999C14.9476 22 13.3999 20.4523 13.3999 18.5V5.5Z" fill="black"/>
</svg>
