<?xml version="1.0" encoding="UTF-8"?><svg xmlns="http://www.w3.org/2000/svg" viewBox="0 0 20 20"><defs><style>.d{fill:#e0d754;fill-rule:evenodd;}.e{fill:none;}</style></defs><g id="a"/><g id="b"><g id="c"><g><path class="d" d="M9.97,2.67c-3.29,0-6,2.55-6,5.71v2.29l-1.12,1.66c-.93,1.33,.04,3.01,1.65,3.01H15.52c.78,0,1.42-.46,1.74-1.03,.33-.58,.38-1.35-.11-2l-1.18-1.65v-2.28c0-1.58-.7-3.06-1.75-4.06l-.02-.02c-1.11-.97-2.58-1.63-4.23-1.63Zm-2.19,13.33c-.37,0-.67,.3-.67,.67s.3,.67,.67,.67h4c.37,0,.67-.3,.67-.67s-.3-.67-.67-.67H7.78Z"/><rect class="e" width="20" height="20"/></g></g></g></svg>