<svg width="24" height="24" viewBox="0 0 24 24" fill="none" xmlns="http://www.w3.org/2000/svg">
<path d="M19.38 7.42922H16.7687V4.71689C16.6682 2.70776 15.0612 1 12.952 1H4.71618C2.70744 1 1 2.70776 1 4.71689V12.9543C1 15.0639 2.70744 16.6712 4.71618 16.6712H7.32755V19.2831C7.32755 21.3927 9.03499 23 11.0437 23H19.2796C21.3888 23 22.9958 21.2922 22.9958 19.2831V11.0457C23.0962 9.03653 21.3888 7.42922 19.38 7.42922ZM4.71618 14.6621C3.71181 14.6621 3.00875 13.8584 3.00875 12.9543V4.71689C3.00875 3.81279 3.81225 3.00913 4.71618 3.00913H12.952C13.9564 3.00913 14.6595 3.81279 14.6595 4.71689V12.9543C14.6595 13.9589 13.856 14.6621 12.952 14.6621H9.43674V11.1461C9.43674 10.1416 10.2402 9.43836 11.1442 9.43836C11.7468 9.43836 12.1485 9.03653 12.1485 8.43379C12.1485 7.83105 11.7468 7.42922 11.1442 7.42922C9.03499 7.42922 7.42799 9.03653 7.42799 11.1461V14.6621H4.71618ZM20.987 19.3836C20.987 20.3881 20.284 21.0913 19.38 21.0913H11.1442C10.1398 21.0913 9.43674 20.2877 9.43674 19.3836V16.7717H12.952C15.0612 16.7717 16.6682 15.0639 16.6682 13.0548V9.43836H19.2796C20.284 9.43836 20.987 10.242 20.987 11.1461V19.3836Z" fill="black"/>
</svg>
