<?xml version="1.0" encoding="UTF-8"?><svg id="Layer_2" xmlns="http://www.w3.org/2000/svg" viewBox="0 0 20 20"><g id="Layer_1-2"><g><path d="M2.54,16.73h2.27c1.18,0,2.27-.45,3.09-1.27L17.27,6.09c1.36-1.36,1.36-3.64,0-5-.64-.73-1.55-1.09-2.45-1.09s-1.82,.36-2.55,1L2.91,10.45c-.82,.82-1.27,2-1.27,3.18v2.27c0,.45,.45,.82,.91,.82Zm.91-3.18c0-.73,.27-1.36,.73-1.82l7.45-7.45,1.27,1.18c.18,.18,.45,.27,.64,.27,.27,0,.45-.09,.64-.27,.36-.36,.36-.91,0-1.27l-1.27-1.27,.64-.64c.36-.27,.82-.45,1.27-.45s.91,.18,1.18,.55c.64,.64,.64,1.82,0,2.45L6.64,14.18c-.45,.45-1.18,.73-1.82,.73h-1.36v-1.36Z" fill="#fff8"/><path d="M19.09,18.18H.91c-.55,0-.91,.36-.91,.91s.36,.91,.91,.91H19.09c.55,0,.91-.36,.91-.91s-.36-.91-.91-.91Z" fill="#fff8"/></g></g></svg>