<svg width="24" height="24" viewBox="0 0 24 24" fill="none" xmlns="http://www.w3.org/2000/svg">
<path d="M21 16.7002C20.4 16.7002 20 17.1002 20 17.7002V18.5002C20 19.3002 19.3 20.0002 18.5 20.0002H17.7C17.1 20.0002 16.7 20.4002 16.7 21.0002C16.7 21.6002 17.1 22.0002 17.7 22.0002H18.5C20.4 22.0002 22 20.5002 22 18.5002V17.7002C22 17.2002 21.6 16.7002 21 16.7002Z" fill="black"/>
<path d="M21 9C20.4 9 20 9.4 20 10V14.3C20 14.9 20.4 15.3 21 15.3C21.6 15.3 22 14.9 22 14.3V10C22 9.4 21.6 9 21 9Z" fill="black"/>
<path d="M18.5 2H17.7C17.1 2 16.7 2.4 16.7 3C16.7 3.6 17.1 4 17.7 4H18.5C19.3 4 20 4.7 20 5.5V6.3C20 6.9 20.4 7.3 21 7.3C21.6 7.3 22 6.9 22 6.3V5.5C22 3.5 20.5 2 18.5 2Z" fill="black"/>
<path d="M14 2H10C9.4 2 9 2.4 9 3C9 3.6 9.4 4 10 4H14C14.6 4 15 3.6 15 3C15 2.4 14.6 2 14 2Z" fill="black"/>
<path d="M3 7.3C3.6 7.3 4 6.9 4 6.3V5.5C4 4.7 4.7 4 5.5 4H6.3C6.9 4 7.3 3.6 7.3 3C7.3 2.4 6.9 2 6.3 2H5.5C3.5 2 2 3.5 2 5.5V6.3C2 6.8 2.4 7.3 3 7.3Z" fill="black"/>
<path d="M14 20H13.5C13.7 19.6 13.8 19.1 13.8 18.5V13.6C13.8 11.7 12.3 10.1 10.3 10.1H5.5C5 10.1 4.5 10.2 4 10.4V10C4 9.4 3.6 9 3 9C2.4 9 2 9.4 2 10V13.6V15.6V17.7V18.5C2 20.5 3.5 22 5.5 22H6.3H9.7H10.4H14C14.6 22 15 21.6 15 21C15 20.4 14.6 20 14 20ZM9.7 20H6.3H5.5C4.7 20 4 19.3 4 18.5V17.7V15.6V13.6C4 12.8 4.7 12.1 5.5 12.1H10.4C11.2 12.1 11.9 12.8 11.9 13.6V18.5C11.9 19.3 11.2 20 10.4 20H9.7Z" fill="black"/>
</svg>
