<svg xmlns="http://www.w3.org/2000/svg" viewBox="0 0 40 40"><defs><style>.cls-1{fill:none;}</style></defs><g id="Layer_2" data-name="Layer 2"><g id="Layer_1-2" data-name="Layer 1"><path d="M32.21,26.8l-4.48-4.49a11,11,0,0,0,1.09-4.62,10.37,10.37,0,0,0-3.27-7.76A11.06,11.06,0,0,0,9.93,25.58a11.13,11.13,0,0,0,7.74,3.26,10.5,10.5,0,0,0,4.62-1.08l4.49,4.48a4,4,0,0,0,2.71,1.09,4.24,4.24,0,0,0,2.72-1.09A3.85,3.85,0,0,0,32.21,26.8ZM11.83,23.4a8.22,8.22,0,0,1,0-11.7,8.2,8.2,0,0,1,11.69,0A8.12,8.12,0,0,1,26,17.55a7.91,7.91,0,0,1-2.44,5.85,8.7,8.7,0,0,1-5.85,2.45A7.9,7.9,0,0,1,11.83,23.4Z"/><rect class="cls-1" width="40" height="40"/></g></g></svg>