<svg width="24" height="24" viewBox="0 0 24 24" fill="none" xmlns="http://www.w3.org/2000/svg">
<path d="M17.7 22H6.29996C5.09996 22 3.99996 21.5 3.09996 20.6C2.29996 19.7 1.89996 18.5 1.99996 17.3L3.39996 5.9C3.59996 3.7 5.39996 2 7.59996 2H16.4C18.6 2 20.5 3.7 20.7 5.9L22 17.3C22.1 18.5 21.7 19.7 20.9 20.6C20.1 21.5 18.9 22 17.7 22ZM7.59996 4C6.39996 4 5.49996 4.9 5.39996 6.1L3.99996 17.5C3.89996 18.1 4.19996 18.7 4.59996 19.2C4.99996 19.7 5.59996 19.9 6.29996 19.9H17.8C18.4 19.9 19 19.6 19.5 19.2C19.9 18.7 20.1 18.1 20.1 17.5L18.6 6.1C18.5 4.9 17.6 4 16.4 4H7.59996Z" fill="#34dcff"/>
<path d="M11.9999 11.3998C9.1999 11.3998 6.8999 9.0998 6.8999 6.2998C6.8999 5.6998 7.2999 5.2998 7.8999 5.2998C8.4999 5.2998 8.8999 5.6998 8.8999 6.2998C8.8999 7.9998 10.2999 9.39981 11.9999 9.39981C13.6999 9.39981 15.0999 7.9998 15.0999 6.2998C15.0999 5.6998 15.4999 5.2998 16.0999 5.2998C16.6999 5.2998 17.0999 5.6998 17.0999 6.2998C17.0999 9.0998 14.7999 11.3998 11.9999 11.3998Z" fill="#34dcff"/>
</svg>
