<svg xmlns="http://www.w3.org/2000/svg" viewBox="0 0 549 448.26"><defs><style>.cls-1{isolation:isolate;}.cls-2{opacity:0.8;}.cls-3{mix-blend-mode:multiply;opacity:0.5;}.cls-4,.cls-7,.cls-8{fill:#83d5e1;}.cls-10,.cls-5,.cls-9{fill:none;stroke:#83d5e1;}.cls-5,.cls-7,.cls-8{stroke-miterlimit:10;}.cls-6{fill:#fff;}.cls-7,.cls-8{stroke:#fff;}.cls-8{opacity:0.25;}.cls-10,.cls-9{stroke-linecap:round;stroke-linejoin:round;stroke-width:2px;}.cls-10{stroke-dasharray:11.79 11.79;}</style></defs><g class="cls-1"><g id="Layer_2" data-name="Layer 2"><g id="Layer_1-2" data-name="Layer 1"><g class="cls-2"><g class="cls-3"><rect class="cls-4" x="348.55" y="20.5" width="199.95" height="300" rx="12.98"/><rect class="cls-5" x="348.55" y="20.5" width="199.95" height="300" rx="12.98"/></g><rect class="cls-6" x="328.55" y="0.5" width="199.95" height="300" rx="12.98"/><rect class="cls-5" x="328.55" y="0.5" width="199.95" height="300" rx="12.98"/></g><rect class="cls-7" x="349.05" y="21" width="15" height="15" rx="7.5"/><rect class="cls-8" x="349.5" y="70.26" width="120" height="15" rx="7.5"/><rect class="cls-8" x="349.5" y="100.26" width="65" height="15" rx="7.5"/><rect class="cls-8" x="349.5" y="130.26" width="142" height="15" rx="7.5"/><rect class="cls-8" x="349.5" y="197.26" width="32" height="15" rx="7.5"/><rect class="cls-8" x="349.5" y="223.26" width="71" height="15" rx="7.5"/><rect class="cls-7" x="369.05" y="21" width="15" height="15" rx="7.5"/><rect class="cls-7" x="389.05" y="21" width="15" height="15" rx="7.5"/><g class="cls-2"><g class="cls-3"><rect class="cls-4" x="100" y="107.76" width="400" height="300" rx="12.98"/><rect class="cls-5" x="100" y="107.76" width="400" height="300" rx="12.98"/></g><rect class="cls-6" x="80" y="87.76" width="400" height="300" rx="12.98"/><rect class="cls-5" x="80" y="87.76" width="400" height="300" rx="12.98"/></g><rect class="cls-7" x="100.5" y="108.26" width="15" height="15" rx="7.5"/><rect class="cls-7" x="120.5" y="108.26" width="15" height="15" rx="7.5"/><rect class="cls-7" x="140.5" y="108.26" width="15" height="15" rx="7.5"/><path class="cls-9" d="M167.55,297.38s.76-2.08,2.35-5.52"/><path class="cls-10" d="M175.35,281.41c11.43-19.71,36.12-50.83,78.73-52.38,62.58-2.27,95.32,41.78,60,57.53s-75.25,2.91-59-30c7.68-15.49,35.47-35.89,69.74-55"/><path class="cls-9" d="M330,198.76q2.63-1.42,5.28-2.84"/><g class="cls-2"><path class="cls-4" d="M344.09,202.3a5.53,5.53,0,0,1-.32-1.05l0-.21,0-8.14a.78.78,0,0,0-.08-.35.71.71,0,0,0-.21-.27L337.26,187a.73.73,0,0,1-.14-.16,5.75,5.75,0,0,1-.56-.83,3.6,3.6,0,0,1,3.09-5.13l22.39-.82a3.59,3.59,0,0,1,3.71,3.46,3.62,3.62,0,0,1-.87,2.48l-14.82,17.07a3.61,3.61,0,0,1-5.08.4A3.5,3.5,0,0,1,344.09,202.3Z"/><path class="cls-4" d="M364.55,182.53a2.57,2.57,0,0,1-.43,2.8L349.3,202.4a2.59,2.59,0,0,1-3.65.32,2.5,2.5,0,0,1-.66-.85,5.8,5.8,0,0,1-.24-.84l0-8.15a1.89,1.89,0,0,0-.18-.77,1.62,1.62,0,0,0-.46-.58l-6.18-5.25a4.81,4.81,0,0,1-.45-.66,2.59,2.59,0,0,1,1.23-3.45,2.51,2.51,0,0,1,1-.25l22.39-.87a2.59,2.59,0,0,1,2.48,1.48m1.81-.87h0a4.57,4.57,0,0,0-4.36-2.61l-22.37.82a4.57,4.57,0,0,0-4.42,4.73,4.44,4.44,0,0,0,.43,1.79,5.79,5.79,0,0,0,.67,1,2.87,2.87,0,0,0,.29.31l6.14,5.25.05,8.06a1.84,1.84,0,0,0,0,.41,6.58,6.58,0,0,0,.35,1.3,4.59,4.59,0,0,0,7.6,1l14.83-17.08A4.64,4.64,0,0,0,366.36,181.66Z"/></g><polygon class="cls-4" points="10 169.25 12.47 176.79 20 179.25 12.47 181.72 10 189.25 7.53 181.72 0 179.25 7.53 176.79 10 169.25"/><polygon class="cls-4" points="180 34.26 182.47 41.79 190 44.26 182.47 46.72 180 54.26 177.53 46.72 170 44.26 177.53 41.79 180 34.26"/><polygon class="cls-4" points="464 34.26 466.47 41.79 474 44.26 466.47 46.72 464 54.26 461.53 46.72 454 44.26 461.53 41.79 464 34.26"/><polygon class="cls-4" points="285 120.25 287.47 127.79 295 130.25 287.47 132.72 285 140.25 282.53 132.72 275 130.25 282.53 127.79 285 120.25"/><polygon class="cls-4" points="59 412.25 61.47 419.79 69 422.25 61.47 424.72 59 432.25 56.53 424.72 49 422.25 56.53 419.79 59 412.25"/><polygon class="cls-4" points="533 350.25 535.47 357.79 543 360.25 535.47 362.72 533 370.25 530.53 362.72 523 360.25 530.53 357.79 533 350.25"/><polygon class="cls-4" points="364 428.25 366.47 435.79 374 438.25 366.47 440.72 364 448.25 361.53 440.72 354 438.25 361.53 435.79 364 428.25"/></g></g></g></svg>