<?xml version="1.0" encoding="UTF-8"?><svg id="Layer_2" xmlns="http://www.w3.org/2000/svg" xmlns:xlink="http://www.w3.org/1999/xlink" viewBox="0 0 549 448.26"><defs><style>.cls-1{filter:url(#drop-shadow-2);}.cls-1,.cls-2,.cls-3,.cls-4,.cls-5{stroke:#83d5e1;}.cls-1,.cls-2,.cls-6,.cls-5{opacity:.8;}.cls-1,.cls-2,.cls-7,.cls-5,.cls-8{stroke-miterlimit:10;}.cls-1,.cls-2,.cls-5{fill:#fff;}.cls-9,.cls-7,.cls-8{fill:#83d5e1;}.cls-2{filter:url(#drop-shadow-1);}.cls-3{stroke-dasharray:0 0 11.79 11.79;}.cls-3,.cls-4{fill:none;stroke-linecap:round;stroke-linejoin:round;stroke-width:2px;}.cls-7{opacity:.25;}.cls-7,.cls-8{stroke:#fff;}.cls-5{filter:url(#drop-shadow-3);}</style><filter id="drop-shadow-1" filterUnits="userSpaceOnUse"><feOffset dx="20" dy="20"/><feGaussianBlur result="blur" stdDeviation="0"/><feFlood flood-color="#83d5e1" flood-opacity=".5"/><feComposite in2="blur" operator="in"/><feComposite in="SourceGraphic"/></filter><filter id="drop-shadow-2" filterUnits="userSpaceOnUse"><feOffset dx="20" dy="20"/><feGaussianBlur result="blur-2" stdDeviation="0"/><feFlood flood-color="#83d5e1" flood-opacity=".5"/><feComposite in2="blur-2" operator="in"/><feComposite in="SourceGraphic"/></filter><filter id="drop-shadow-3" filterUnits="userSpaceOnUse"><feOffset dx="20" dy="20"/><feGaussianBlur result="blur-3" stdDeviation="0"/><feFlood flood-color="#83d5e1" flood-opacity=".5"/><feComposite in2="blur-3" operator="in"/><feComposite in="SourceGraphic"/></filter></defs><g id="Layer_1-2"><g><g><g><g><rect class="cls-2" x="328.55" y=".5" width="199.95" height="300" rx="12.98" ry="12.98"/><rect class="cls-8" x="349.05" y="21" width="15" height="15" rx="7.5" ry="7.5"/><rect class="cls-7" x="349.5" y="70.26" width="120" height="15" rx="7.5" ry="7.5"/><rect class="cls-7" x="349.5" y="100.26" width="65" height="15" rx="7.5" ry="7.5"/><rect class="cls-7" x="349.5" y="130.26" width="142" height="15" rx="7.5" ry="7.5"/><rect class="cls-7" x="349.5" y="197.26" width="32" height="15" rx="7.5" ry="7.5"/><rect class="cls-7" x="349.5" y="223.26" width="71" height="15" rx="7.5" ry="7.5"/><rect class="cls-8" x="369.05" y="21" width="15" height="15" rx="7.5" ry="7.5"/><rect class="cls-8" x="389.05" y="21" width="15" height="15" rx="7.5" ry="7.5"/></g><g><rect class="cls-1" x="80" y="87.76" width="400" height="300" rx="12.98" ry="12.98"/><rect class="cls-8" x="100.5" y="108.26" width="15" height="15" rx="7.5" ry="7.5"/><rect class="cls-8" x="120.5" y="108.26" width="15" height="15" rx="7.5" ry="7.5"/><rect class="cls-8" x="140.5" y="108.26" width="15" height="15" rx="7.5" ry="7.5"/></g><g><path class="cls-4" d="M167.55,297.38s.75-2.08,2.35-5.52"/><path class="cls-3" d="M175.35,281.41c11.43-19.71,36.12-50.83,78.73-52.38,62.58-2.28,95.32,41.78,59.99,57.53-35.33,15.75-75.25,2.9-58.96-29.96,7.68-15.5,35.47-35.89,69.74-55"/><path class="cls-4" d="M330.01,198.76c1.75-.95,3.51-1.9,5.29-2.84"/></g><g class="cls-6"><path class="cls-9" d="M344.09,202.3c-.14-.34-.25-.7-.32-1.06l-.02-.21-.04-8.14c0-.12-.02-.24-.08-.35-.05-.1-.12-.19-.21-.27l-6.16-5.29c-.05-.04-.1-.1-.14-.15-.22-.26-.41-.54-.57-.84-.85-1.8-.07-3.94,1.73-4.79,.43-.2,.89-.32,1.36-.34l22.39-.82c1.98-.07,3.64,1.48,3.71,3.46,.03,.9-.28,1.79-.87,2.47l-14.82,17.07c-1.29,1.51-3.56,1.69-5.08,.4-.37-.32-.68-.71-.9-1.16Z"/><path class="cls-9" d="M364.55,182.53c.42,.94,.26,2.04-.43,2.8l-14.82,17.07c-.92,1.1-2.55,1.24-3.65,.32-.28-.23-.5-.52-.66-.85-.1-.27-.18-.55-.24-.84l-.04-8.15c0-.27-.06-.53-.18-.77-.11-.23-.26-.43-.46-.59l-6.18-5.25c-.16-.21-.31-.43-.45-.66-.61-1.29-.07-2.84,1.23-3.45,.32-.15,.66-.24,1.02-.25l22.39-.86c1.05-.06,2.03,.52,2.48,1.47m1.8-.86h0c-.79-1.67-2.51-2.7-4.36-2.62l-22.37,.82c-2.53,.08-4.51,2.2-4.43,4.73,.02,.62,.17,1.23,.43,1.8,.19,.36,.42,.7,.68,1.02,.08,.11,.18,.21,.29,.3l6.14,5.25,.05,8.06c0,.14,.01,.28,.04,.41,.07,.44,.19,.88,.35,1.29,1.1,2.29,3.84,3.25,6.12,2.15,.56-.27,1.07-.65,1.48-1.12l14.83-17.08c1.23-1.38,1.52-3.35,.74-5.02Z"/></g></g><polygon class="cls-9" points="10 169.26 12.47 176.79 20 179.26 12.47 181.72 10 189.26 7.53 181.72 0 179.26 7.53 176.79 10 169.26"/><polygon class="cls-9" points="180 34.26 182.47 41.79 190 44.26 182.47 46.72 180 54.26 177.53 46.72 170 44.26 177.53 41.79 180 34.26"/><polygon class="cls-9" points="464 34.26 466.47 41.79 474 44.26 466.47 46.72 464 54.26 461.53 46.72 454 44.26 461.53 41.79 464 34.26"/><polygon class="cls-9" points="285 120.26 287.47 127.79 295 130.26 287.47 132.72 285 140.26 282.53 132.72 275 130.26 282.53 127.79 285 120.26"/><polygon class="cls-9" points="59 412.26 61.47 419.79 69 422.26 61.47 424.72 59 432.26 56.53 424.72 49 422.26 56.53 419.79 59 412.26"/><polygon class="cls-9" points="533 350.26 535.47 357.79 543 360.26 535.47 362.72 533 370.26 530.53 362.72 523 360.26 530.53 357.79 533 350.26"/><polygon class="cls-9" points="364 428.26 366.47 435.79 374 438.26 366.47 440.72 364 448.26 361.53 440.72 354 438.26 361.53 435.79 364 428.26"/></g><rect class="cls-5" x="21.26" y="223.26" width="159.24" height="116.85" rx="12.98" ry="12.98"/><rect class="cls-8" x="113.5" y="198.26" width="15" height="15" rx="7.5" ry="7.5"/><rect class="cls-8" x="133.5" y="198.26" width="15" height="15" rx="7.5" ry="7.5"/><rect class="cls-8" x="153.5" y="198.26" width="15" height="15" rx="7.5" ry="7.5"/><rect class="cls-7" x="38.5" y="251.26" width="77" height="15" rx="7.5" ry="7.5"/><rect class="cls-7" x="38.5" y="281.26" width="113" height="15" rx="7.5" ry="7.5"/></g></g></svg>