<?xml version="1.0" encoding="UTF-8"?><svg xmlns="http://www.w3.org/2000/svg" viewBox="0 0 177.78 100"><defs><style>.d{fill:#a166aa;}.e{fill:#4f73b8;}.f{fill:#fff;}.g{stroke:#4a6aa7;}.g,.h{fill:none;stroke-miterlimit:10;}.i{fill:#f36f55;}.j{fill:#333;}.h{stroke:#ef4d7a;}.k{fill:gray;}.l{fill:#25272b;}.m{fill:#0eb29a;}.n{fill:#f79431;}</style></defs><g id="a"/><g id="b"><g id="c"><g><rect class="l" width="177.78" height="100"/><path class="n" d="M42.99,14.58l.54,1.76c.06,.2,.22,.35,.42,.42l1.76,.54c.59,.18,.59,1.02,0,1.2l-1.76,.54c-.2,.06-.35,.22-.42,.42l-.54,1.76c-.18,.59-1.02,.59-1.2,0l-.54-1.76c-.06-.2-.22-.35-.42-.42l-1.76-.54c-.59-.18-.59-1.02,0-1.2l1.76-.54c.2-.06,.35-.22,.42-.42l.54-1.76c.18-.59,1.02-.59,1.2,0Z"/><path class="i" d="M17.02,74.36l.81,2.66c.06,.21,.23,.37,.44,.44l2.66,.81c.62,.19,.62,1.07,0,1.26l-2.66,.81c-.21,.06-.37,.23-.44,.44l-.81,2.66c-.19,.62-1.07,.62-1.26,0l-.81-2.66c-.06-.21-.23-.37-.44-.44l-2.66-.81c-.62-.19-.62-1.07,0-1.26l2.66-.81c.21-.06,.37-.23,.44-.44l.81-2.66c.19-.62,1.07-.62,1.26,0Z"/><path class="m" d="M141.07,83.51l2.95,1.56c.23,.12,.51,.12,.74,0l2.95-1.56c.69-.36,1.43,.38,1.07,1.07l-1.56,2.95c-.12,.23-.12,.51,0,.74l1.56,2.95c.36,.69-.38,1.43-1.07,1.07l-2.95-1.56c-.23-.12-.51-.12-.74,0l-2.95,1.56c-.69,.36-1.43-.38-1.07-1.07l1.56-2.95c.12-.23,.12-.51,0-.74l-1.56-2.95c-.36-.69,.38-1.43,1.07-1.07Z"/><path class="e" d="M74.04,66.13l-1.3,2.45c-.1,.19-.1,.42,0,.62l1.3,2.45c.3,.57-.32,1.19-.89,.89l-2.45-1.3c-.19-.1-.42-.1-.62,0l-2.45,1.3c-.57,.3-1.19-.32-.89-.89l1.3-2.45c.1-.19,.1-.42,0-.62l-1.3-2.45c-.3-.57,.32-1.19,.89-.89l2.45,1.3c.19,.1,.42,.1,.62,0l2.45-1.3c.57-.3,1.19,.32,.89,.89Z"/><path class="d" d="M153.18,11.22l.31,1.02c.08,.26,.29,.47,.55,.55l1.02,.31c.78,.24,.78,1.35,0,1.59l-1.02,.31c-.26,.08-.47,.29-.55,.55l-.31,1.02c-.24,.78-1.35,.78-1.59,0l-.31-1.02c-.08-.26-.29-.47-.55-.55l-1.02-.31c-.78-.24-.78-1.35,0-1.59l1.02-.31c.26-.08,.47-.29,.55-.55l.31-1.02c.24-.78,1.35-.78,1.59,0Z"/><rect class="h" x="116.89" y="22" width="6" height="6" rx="3" ry="3"/><rect class="g" x="21.39" y="24.5" width="6" height="6" rx="3" ry="3"/><g><circle class="f" cx="105.39" cy="84.5" r="1.5"/><path class="j" d="M105.39,83.5c.55,0,1,.45,1,1s-.45,1-1,1-1-.45-1-1,.45-1,1-1m0-1c-1.1,0-2,.9-2,2s.9,2,2,2,2-.9,2-2-.9-2-2-2h0Z"/></g><g><circle class="f" cx="150.89" cy="65" r="1.5"/><path class="j" d="M150.89,64c.55,0,1,.45,1,1s-.45,1-1,1-1-.45-1-1,.45-1,1-1m0-1c-1.1,0-2,.9-2,2s.9,2,2,2,2-.9,2-2-.9-2-2-2h0Z"/></g><g><circle class="f" cx="66.89" cy="24" r="1.5"/><path class="j" d="M66.89,23c.55,0,1,.45,1,1s-.45,1-1,1-1-.45-1-1,.45-1,1-1m0-1c-1.1,0-2,.9-2,2s.9,2,2,2,2-.9,2-2-.9-2-2-2h0Z"/></g><g><circle class="f" cx="10.89" cy="57" r="1.5"/><path class="j" d="M10.89,56c.55,0,1,.45,1,1s-.45,1-1,1-1-.45-1-1,.45-1,1-1m0-1c-1.1,0-2,.9-2,2s.9,2,2,2,2-.9,2-2-.9-2-2-2h0Z"/></g><g><circle class="f" cx="47.89" cy="80.5" r=".75"/><path class="j" d="M47.89,80c.28,0,.5,.22,.5,.5s-.22,.5-.5,.5-.5-.22-.5-.5,.22-.5,.5-.5m0-.5c-.55,0-1,.45-1,1s.45,1,1,1,1-.45,1-1-.45-1-1-1h0Z"/></g><g><circle class="f" cx="89.39" cy="90.5" r=".75"/><path class="j" d="M89.39,90c.28,0,.5,.22,.5,.5s-.22,.5-.5,.5-.5-.22-.5-.5,.22-.5,.5-.5m0-.5c-.55,0-1,.45-1,1s.45,1,1,1,1-.45,1-1-.45-1-1-1h0Z"/></g><g><circle class="f" cx="113.6" cy="68.16" r=".75"/><path class="j" d="M113.6,67.66c.28,0,.5,.22,.5,.5s-.22,.5-.5,.5-.5-.22-.5-.5,.22-.5,.5-.5m0-.5c-.55,0-1,.45-1,1s.45,1,1,1,1-.45,1-1-.45-1-1-1h0Z"/></g><g><circle class="f" cx="81.99" cy="36.81" r=".75"/><path class="j" d="M81.99,36.31c.28,0,.5,.22,.5,.5s-.22,.5-.5,.5-.5-.22-.5-.5,.22-.5,.5-.5m0-.5c-.55,0-1,.45-1,1s.45,1,1,1,1-.45,1-1-.45-1-1-1h0Z"/></g><g><circle class="f" cx="132.95" cy="12.81" r=".75"/><path class="j" d="M132.95,12.31c.28,0,.5,.22,.5,.5s-.22,.5-.5,.5-.5-.22-.5-.5,.22-.5,.5-.5m0-.5c-.55,0-1,.45-1,1s.45,1,1,1,1-.45,1-1-.45-1-1-1h0Z"/></g><g><circle class="k" cx="131.66" cy="65.71" r=".75"/><path class="j" d="M131.66,65.21c.28,0,.5,.22,.5,.5s-.22,.5-.5,.5-.5-.22-.5-.5,.22-.5,.5-.5m0-.5c-.55,0-1,.45-1,1s.45,1,1,1,1-.45,1-1-.45-1-1-1h0Z"/></g><g><circle class="k" cx="131.66" cy="65.71" r=".75"/><path class="j" d="M131.66,65.21c.28,0,.5,.22,.5,.5s-.22,.5-.5,.5-.5-.22-.5-.5,.22-.5,.5-.5m0-.5c-.55,0-1,.45-1,1s.45,1,1,1,1-.45,1-1-.45-1-1-1h0Z"/></g><g><circle class="k" cx="58.76" cy="93.06" r=".75"/><path class="j" d="M58.76,92.56c.28,0,.5,.22,.5,.5s-.22,.5-.5,.5-.5-.22-.5-.5,.22-.5,.5-.5m0-.5c-.55,0-1,.45-1,1s.45,1,1,1,1-.45,1-1-.45-1-1-1h0Z"/></g><g><circle class="k" cx="14.11" cy="30.87" r=".75"/><path class="j" d="M14.11,30.37c.28,0,.5,.22,.5,.5s-.22,.5-.5,.5-.5-.22-.5-.5,.22-.5,.5-.5m0-.5c-.55,0-1,.45-1,1s.45,1,1,1,1-.45,1-1-.45-1-1-1h0Z"/></g><g><circle class="k" cx="106.63" cy="21.06" r=".75"/><path class="j" d="M106.63,20.56c.28,0,.5,.22,.5,.5s-.22,.5-.5,.5-.5-.22-.5-.5,.22-.5,.5-.5m0-.5c-.55,0-1,.45-1,1s.45,1,1,1,1-.45,1-1-.45-1-1-1h0Z"/></g><g><circle class="k" cx="158.11" cy="30.87" r=".75"/><path class="j" d="M158.11,30.37c.28,0,.5,.22,.5,.5s-.22,.5-.5,.5-.5-.22-.5-.5,.22-.5,.5-.5m0-.5c-.55,0-1,.45-1,1s.45,1,1,1,1-.45,1-1-.45-1-1-1h0Z"/></g></g></g></g></svg>