<svg xmlns="http://www.w3.org/2000/svg" viewBox="0 0 793.76 793.76"><rect width="793.76" height="793.76" fill="#19284c" id="bg" class="bg"/><g><g transform="translate(198.44,&#10;                                0.00) rotate(90, 99.22, 99.22)"><svg xmlns="http://www.w3.org/2000/svg" id="Layer_1" data-name="Layer 1" viewBox="0 0 100 100" width="198.44" height="198.44"><path d="M100,100A50,50,0,0,0,0,100Z" fill="#131F3A"/></svg></g><g transform="translate(0.00,&#10;                                198.44) rotate(270, 99.22, 99.22)"><svg xmlns="http://www.w3.org/2000/svg" id="Layer_1" data-name="Layer 1" viewBox="0 0 100 100" width="198.44" height="198.44"><rect width="100" height="100" fill="#152342"/></svg></g><g transform="translate(396.88,&#10;                                0.00) rotate(270, 99.22, 99.22)"><svg xmlns="http://www.w3.org/2000/svg" id="Layer_1" data-name="Layer 1" viewBox="0 0 100 100" width="198.44" height="198.44"><path d="M100,100A50,50,0,0,0,0,100Z" fill="#131F3A"/></svg></g><g transform="translate(595.32,&#10;                                0.00) rotate(270, 99.22, 99.22)"><svg xmlns="http://www.w3.org/2000/svg" id="Layer_1" data-name="Layer 1" viewBox="0 0 100 100" width="198.44" height="198.44"><path d="M100,100A100,100,0,0,0,0,0V100Z" fill="#152342"/></svg></g><g transform="translate(396.88,&#10;                                198.44) rotate(0, 99.22, 99.22)"><svg xmlns="http://www.w3.org/2000/svg" id="Layer_1" data-name="Layer 1" viewBox="0 0 100 100" width="198.44" height="198.44"><rect width="100" height="100" fill="#152342"/></svg></g></g><g><g transform="translate(0.00,&#10;                                396.88) rotate(180, 99.22, 99.22)"><svg xmlns="http://www.w3.org/2000/svg" id="Layer_1" data-name="Layer 1" viewBox="0 0 100 100" width="198.44" height="198.44"><path d="M100,100A100,100,0,0,0,0,0V100Z" fill="#152342"/></svg></g><g transform="translate(198.44,&#10;                                396.88) rotate(180, 99.22, 99.22)"><svg xmlns="http://www.w3.org/2000/svg" id="Layer_1" data-name="Layer 1" viewBox="0 0 100 100" width="198.44" height="198.44"><path d="M100,100A100,100,0,0,0,0,0V100Z" fill="#152342"/></svg></g><g transform="translate(0.00,&#10;                                595.32) rotate(180, 99.22, 99.22)"><svg xmlns="http://www.w3.org/2000/svg" id="Layer_1" data-name="Layer 1" viewBox="0 0 100 100" width="198.44" height="198.44"><path d="M100,100A100,100,0,0,0,0,0V100Z" fill="#152342"/></svg></g><g transform="translate(396.88,&#10;                                396.88) rotate(180, 99.22, 99.22)"><svg xmlns="http://www.w3.org/2000/svg" id="Layer_1" data-name="Layer 1" viewBox="0 0 100 100" width="198.44" height="198.44"><path d="M100,100A50,50,0,0,0,0,100Z" fill="#131F3A"/></svg></g><g transform="translate(595.32,&#10;                                396.88) rotate(90, 99.22, 99.22)"><svg xmlns="http://www.w3.org/2000/svg" id="Layer_1" data-name="Layer 1" viewBox="0 0 100 100" width="198.44" height="198.44"><path d="M100,100A50,50,0,0,0,0,100Z" fill="#131F3A"/></svg></g><g transform="translate(396.88,&#10;                                595.32) rotate(90, 99.22, 99.22)"><svg xmlns="http://www.w3.org/2000/svg" id="Layer_1" data-name="Layer 1" viewBox="0 0 100 100" width="198.44" height="198.44"><path d="M100,100A100,100,0,0,0,0,0V100Z" fill="#152342"/></svg></g></g></svg>